<?xml version="1.0" encoding="UTF-8" standalone="no"?>
<!DOCTYPE svg PUBLIC "-//W3C//DTD SVG 1.1//EN" "http://www.w3.org/Graphics/SVG/1.1/DTD/svg11.dtd">
<svg width="100%" height="100%" viewBox="0 0 372 379" version="1.1" xmlns="http://www.w3.org/2000/svg" xmlns:xlink="http://www.w3.org/1999/xlink" xml:space="preserve" xmlns:serif="http://www.serif.com/" style="fill-rule:evenodd;clip-rule:evenodd;stroke-linejoin:round;stroke-miterlimit:2;">
    <g transform="matrix(1,0,0,1,-558,-570)">
        <g>
            <g transform="matrix(1,0,0,1,281,440.398)">
                <path d="M603.911,186.089C567.998,150.176 519.289,130 468.5,130C362.808,130 277,215.808 277,321.5C277,410.666 338.541,488.034 425.422,508.092L425.853,506.226C339.84,486.368 278.915,409.775 278.915,321.5C278.915,216.865 363.865,131.915 468.5,131.915C518.781,131.915 567.003,151.889 602.557,187.443L603.911,186.089Z" style="fill:rgb(166,20,93);"/>
            </g>
            <g transform="matrix(0.843414,0.486945,-0.486945,0.843414,510.914,262.607)">
                <path d="M603.911,186.089C567.998,150.176 519.289,130 468.5,130C362.808,130 277,215.808 277,321.5C277,410.666 338.541,488.034 425.422,508.092L425.853,506.226C339.84,486.368 278.915,409.775 278.915,321.5C278.915,216.865 363.865,131.915 468.5,131.915C518.781,131.915 567.003,151.889 602.557,187.443L603.911,186.089Z" style="fill:rgb(73,20,166);"/>
            </g>
        </g>
    </g>
</svg>
