<?xml version="1.0" encoding="UTF-8" standalone="no"?>
<!DOCTYPE svg PUBLIC "-//W3C//DTD SVG 1.1//EN" "http://www.w3.org/Graphics/SVG/1.1/DTD/svg11.dtd">
<svg width="100%" height="100%" viewBox="0 0 402 12" version="1.1" xmlns="http://www.w3.org/2000/svg" xmlns:xlink="http://www.w3.org/1999/xlink" xml:space="preserve" xmlns:serif="http://www.serif.com/" style="fill-rule:evenodd;clip-rule:evenodd;stroke-linejoin:round;stroke-miterlimit:2;">
    <g transform="matrix(1,0,0,1,-558,-1028)">
        <g>
            <g transform="matrix(1.01515,0,0,0.116415,-38.9091,918.97)">
                <path d="M591.699,992.034L588,1013L588,948.49L591.699,969.456L980.301,969.456L984,948.49L984,1013L980.301,992.034L591.699,992.034Z" style="fill:rgb(166,20,93);"/>
            </g>
            <g transform="matrix(1.01515,0,0,0.0582076,-38.9091,978.934)">
                <path d="M589.849,992.034L588,1013L588,948.49L589.849,969.456L982.151,969.456L984,948.49L984,1013L982.151,992.034L589.849,992.034Z" style="fill:rgb(129,20,166);"/>
            </g>
            <g transform="matrix(1,0,0,1,-10.6832,0)">
                <g transform="matrix(1,0,0,1,0,-0.550898)">
                    <path d="M629,1029.89C629,1029.61 628.776,1029.39 628.5,1029.39L627.5,1029.39C627.224,1029.39 627,1029.61 627,1029.89L627,1039.5C627,1039.78 627.224,1040 627.5,1040L628.5,1040C628.776,1040 629,1039.78 629,1039.5L629,1029.89Z" style="fill:rgb(30,186,246);"/>
                </g>
                <g transform="matrix(1,0,0,1,94.4555,-0.550898)">
                    <path d="M629,1029.89C629,1029.61 628.776,1029.39 628.5,1029.39L627.5,1029.39C627.224,1029.39 627,1029.61 627,1029.89L627,1039.5C627,1039.78 627.224,1040 627.5,1040L628.5,1040C628.776,1040 629,1039.78 629,1039.5L629,1029.89Z" style="fill:rgb(30,186,246);"/>
                </g>
                <g transform="matrix(1,0,0,1,188.911,-0.550898)">
                    <path d="M629,1029.89C629,1029.61 628.776,1029.39 628.5,1029.39L627.5,1029.39C627.224,1029.39 627,1029.61 627,1029.89L627,1039.5C627,1039.78 627.224,1040 627.5,1040L628.5,1040C628.776,1040 629,1039.78 629,1039.5L629,1029.89Z" style="fill:rgb(30,186,246);"/>
                </g>
                <g transform="matrix(1,0,0,1,283.366,-0.550898)">
                    <path d="M629,1029.89C629,1029.61 628.776,1029.39 628.5,1029.39L627.5,1029.39C627.224,1029.39 627,1029.61 627,1029.89L627,1039.5C627,1039.78 627.224,1040 627.5,1040L628.5,1040C628.776,1040 629,1039.78 629,1039.5L629,1029.89Z" style="fill:rgb(30,186,246);"/>
                </g>
            </g>
        </g>
    </g>
</svg>
